<?xml version="1.0" encoding="iso-8859-1"?>
<!-- Generator: Adobe Illustrator 19.0.0, SVG Export Plug-In . SVG Version: 6.00 Build 0)  -->
<svg version="1.1" id="Layer_1" xmlns="http://www.w3.org/2000/svg" xmlns:xlink="http://www.w3.org/1999/xlink" x="0px" y="0px"
	 viewBox="0 0 512 512" style="enable-background:new 0 0 512 512;" xml:space="preserve">
<path style="fill:#EFC377;" d="M183.49,328.51l-60.4-60.402c-3.359,3.359-5.243,7.91-5.244,12.66l0.002,42.494v52.986
	c0,4.946,2.005,9.421,5.243,12.66c3.241,3.238,7.716,5.243,12.66,5.243h52.983l42.498,0.002c4.749,0,9.306-1.888,12.66-5.243
	L183.49,328.51z"/>
<polygon style="fill:#F4D944;" points="397.604,184.562 362.521,149.479 327.438,114.399 302.122,89.079 123.089,268.108 
	183.49,328.51 243.89,388.912 422.92,209.88 "/>
<path style="fill:#DD539C;" d="M506.469,101.013l-47.742-47.742L410.987,5.53c-6.994-6.991-19.188-6.132-27.235,1.918L302.12,89.079
	l25.316,25.318l35.083,35.083l35.081,35.081l0.002,0.002l25.315,25.316l81.635-81.631
	C512.604,120.199,513.46,108.004,506.469,101.013z"/>
<path style="fill:#424EDE;" d="M488.727,232.729c-12.853,0-23.273,10.42-23.273,23.273v209.453H46.545V46.545H256
	c12.853,0,23.273-10.42,23.273-23.273S268.853,0,256,0H23.273C10.42,0,0,10.42,0,23.273v465.455C0,501.58,10.42,512,23.273,512
	h465.455C501.58,512,512,501.58,512,488.727V256.002C512,243.147,501.58,232.729,488.727,232.729z"/>
<path style="fill:#ECB555;" d="M123.089,388.911l60.4-60.4l-60.4-60.402c-3.359,3.359-5.243,7.91-5.244,12.66l0.002,42.494v52.986
	C117.847,381.196,119.851,385.671,123.089,388.911z"/>
<polygon style="fill:#F1CC30;" points="362.521,149.479 327.438,114.399 302.122,89.079 123.089,268.108 183.49,328.51 "/>
<g>
	<polygon style="fill:#DB348A;" points="397.604,184.562 422.92,209.88 397.605,184.562 	"/>
	<path style="fill:#DB348A;" d="M362.521,149.479l96.206-96.208L410.987,5.53c-6.994-6.991-19.188-6.132-27.235,1.918L302.12,89.079
		l25.316,25.318L362.521,149.479z"/>
</g>
<g>
</g>
<g>
</g>
<g>
</g>
<g>
</g>
<g>
</g>
<g>
</g>
<g>
</g>
<g>
</g>
<g>
</g>
<g>
</g>
<g>
</g>
<g>
</g>
<g>
</g>
<g>
</g>
<g>
</g>
</svg>
